<?xml version="1.0" encoding="utf-8"?>
<!-- Generator: Adobe Illustrator 19.0.0, SVG Export Plug-In . SVG Version: 6.00 Build 0)  -->
<svg version="1.1" id="Layer_1" xmlns="http://www.w3.org/2000/svg" xmlns:xlink="http://www.w3.org/1999/xlink" x="0px" y="0px"
	 viewBox="0 0 180 44" style="enable-background:new 0 0 180 44;" xml:space="preserve">
<style type="text/css">
	.st0{fill:#157DFB;}
</style>
<g id="XMLID_2_">
	<path id="XMLID_3_" class="st0" d="M6.9,9.6h9.5c0.9,0,1.7,0.1,2.4,0.3c0.8,0.2,1.4,0.5,2,1c0.6,0.4,1,1,1.4,1.7s0.5,1.5,0.5,2.4
		c0,1.3-0.3,2.5-1,3.4c-0.7,1-1.7,1.6-3,1.9v0.1c0.7,0.1,1.2,0.3,1.7,0.5c0.4,0.3,0.8,0.6,1.1,1c0.3,0.4,0.5,0.9,0.6,1.4
		c0.1,0.5,0.2,1.1,0.2,1.7c0,0.3,0,0.8,0.1,1.3c0,0.5,0.1,1,0.1,1.5c0.1,0.5,0.1,1,0.3,1.5c0.1,0.5,0.3,0.8,0.5,1.1h-2.2
		c-0.1-0.2-0.2-0.4-0.3-0.7c-0.1-0.3-0.1-0.6-0.1-0.9c0-0.3-0.1-0.6-0.1-0.9c0-0.3,0-0.5-0.1-0.8c0-0.7-0.1-1.5-0.2-2.2
		c-0.1-0.7-0.3-1.4-0.6-1.9c-0.3-0.6-0.7-1-1.2-1.4s-1.3-0.5-2.2-0.5H8.9v9.2h-2V9.6z M8.9,19.4h7.4c0.6,0,1.2-0.1,1.7-0.3
		c0.5-0.2,1-0.4,1.4-0.8s0.7-0.8,1-1.3c0.2-0.5,0.4-1.1,0.4-1.7c0-1.3-0.4-2.3-1.1-3s-1.9-1.1-3.4-1.1H8.9V19.4z"/>
	<path id="XMLID_6_" class="st0" d="M41.4,15.9c-0.2-0.8-0.5-1.5-0.9-2.1s-0.9-1.2-1.5-1.6c-0.6-0.4-1.2-0.7-1.9-1
		c-0.7-0.2-1.4-0.3-2.2-0.3c-1.4,0-2.6,0.3-3.5,0.8c-1,0.5-1.8,1.2-2.4,2.1c-0.6,0.9-1.1,1.8-1.4,2.9s-0.4,2.2-0.4,3.3
		c0,1.1,0.1,2.2,0.4,3.3c0.3,1.1,0.8,2.1,1.4,2.9c0.6,0.9,1.4,1.6,2.4,2.1c1,0.5,2.2,0.8,3.5,0.8c1,0,1.8-0.2,2.6-0.5
		c0.8-0.3,1.4-0.8,2-1.4c0.6-0.6,1-1.3,1.4-2.1s0.6-1.7,0.7-2.6h2c-0.1,1.3-0.4,2.4-0.9,3.5c-0.5,1-1.1,1.9-1.8,2.6
		c-0.7,0.7-1.6,1.3-2.6,1.7c-1,0.4-2.1,0.6-3.3,0.6c-1.6,0-3.1-0.3-4.3-0.9s-2.2-1.4-3.1-2.4c-0.8-1-1.4-2.1-1.8-3.4
		c-0.4-1.3-0.6-2.7-0.6-4.1s0.2-2.8,0.6-4.1c0.4-1.3,1-2.4,1.8-3.4c0.8-1,1.8-1.8,3.1-2.4s2.7-0.9,4.3-0.9c1,0,1.9,0.1,2.9,0.4
		s1.8,0.7,2.6,1.3c0.8,0.6,1.4,1.3,1.9,2.1c0.5,0.8,0.8,1.8,1,2.9H41.4z"/>
	<path id="XMLID_8_" class="st0" d="M47.6,23.5c0,1.1,0.1,2,0.5,2.7c0.3,0.7,0.8,1.3,1.4,1.7c0.6,0.4,1.3,0.7,2.2,0.9
		c0.8,0.2,1.7,0.3,2.7,0.3c0.5,0,1.1-0.1,1.8-0.2c0.6-0.2,1.2-0.4,1.8-0.7c0.6-0.3,1-0.8,1.4-1.3c0.4-0.5,0.6-1.2,0.6-1.9
		c0-0.6-0.1-1.1-0.4-1.5c-0.3-0.4-0.6-0.8-1-1.1c-0.4-0.3-0.9-0.5-1.4-0.7c-0.5-0.2-1-0.3-1.5-0.4L51,20c-0.6-0.2-1.2-0.3-1.8-0.6
		c-0.6-0.2-1.1-0.5-1.5-0.9s-0.8-0.9-1-1.4c-0.3-0.6-0.4-1.2-0.4-2.1c0-0.5,0.1-1.1,0.3-1.8s0.6-1.3,1.1-1.9s1.3-1.1,2.2-1.5
		c0.9-0.4,2.1-0.6,3.6-0.6c1,0,2,0.1,2.9,0.4c0.9,0.3,1.7,0.7,2.4,1.2c0.7,0.5,1.3,1.2,1.7,2c0.4,0.8,0.6,1.7,0.6,2.8h-2
		c0-0.8-0.2-1.5-0.5-2.1c-0.3-0.6-0.7-1.1-1.2-1.5c-0.5-0.4-1.1-0.7-1.8-0.9c-0.7-0.2-1.4-0.3-2.1-0.3c-0.7,0-1.3,0.1-2,0.2
		c-0.6,0.1-1.2,0.4-1.7,0.7c-0.5,0.3-0.9,0.7-1.1,1.3s-0.4,1.2-0.4,1.9c0,0.5,0.1,0.9,0.2,1.3c0.2,0.4,0.4,0.7,0.7,0.9
		c0.3,0.3,0.6,0.5,1,0.6s0.8,0.3,1.2,0.4l5,1.2c0.7,0.2,1.4,0.4,2.1,0.7c0.6,0.3,1.2,0.6,1.7,1c0.5,0.4,0.9,0.9,1.2,1.5
		s0.4,1.3,0.4,2.2c0,0.2,0,0.5-0.1,0.9c0,0.4-0.2,0.8-0.3,1.2s-0.4,0.9-0.8,1.3c-0.3,0.4-0.8,0.8-1.4,1.2c-0.6,0.4-1.3,0.6-2.2,0.9
		c-0.9,0.2-1.9,0.3-3.1,0.3s-2.3-0.1-3.4-0.4s-1.9-0.7-2.7-1.3c-0.7-0.6-1.3-1.3-1.7-2.2c-0.4-0.9-0.6-2-0.5-3.3H47.6z"/>
	<path id="XMLID_10_" class="st0" d="M72.7,9.6h1.8v2.9h-1.8V9.6z M72.7,15.3h1.8v15h-1.8V15.3z"/>
	<path id="XMLID_13_" class="st0" d="M78.4,9.6h9.5c0.9,0,1.7,0.1,2.4,0.3c0.8,0.2,1.4,0.5,2,1c0.6,0.4,1,1,1.4,1.7
		c0.3,0.7,0.5,1.5,0.5,2.4c0,1.3-0.3,2.5-1,3.4c-0.7,1-1.7,1.6-3,1.9v0.1c0.7,0.1,1.2,0.3,1.7,0.5c0.4,0.3,0.8,0.6,1.1,1
		c0.3,0.4,0.5,0.9,0.6,1.4c0.1,0.5,0.2,1.1,0.2,1.7c0,0.3,0,0.8,0.1,1.3s0.1,1,0.1,1.5c0.1,0.5,0.1,1,0.3,1.5
		c0.1,0.5,0.3,0.8,0.5,1.1h-2.2c-0.1-0.2-0.2-0.4-0.3-0.7s-0.1-0.6-0.1-0.9c0-0.3-0.1-0.6-0.1-0.9c0-0.3,0-0.5-0.1-0.8
		c0-0.7-0.1-1.5-0.2-2.2c-0.1-0.7-0.3-1.4-0.6-1.9c-0.3-0.6-0.7-1-1.2-1.4s-1.3-0.5-2.2-0.5h-7.5v9.2h-2V9.6z M80.4,19.4h7.4
		c0.6,0,1.2-0.1,1.7-0.3c0.5-0.2,1-0.4,1.4-0.8c0.4-0.3,0.7-0.8,1-1.3c0.2-0.5,0.4-1.1,0.4-1.7c0-1.3-0.4-2.3-1.1-3
		c-0.7-0.7-1.9-1.1-3.4-1.1h-7.4V19.4z"/>
	<path id="XMLID_16_" class="st0" d="M98.5,23.3c0,0.7,0.1,1.3,0.3,2c0.2,0.7,0.5,1.3,0.9,1.9s0.9,1,1.5,1.4s1.4,0.6,2.2,0.6
		c1.3,0,2.4-0.3,3.1-1s1.3-1.6,1.6-2.8h1.8c-0.4,1.7-1.1,3-2.1,3.9c-1,0.9-2.5,1.4-4.4,1.4c-1.2,0-2.2-0.2-3.1-0.6
		c-0.9-0.4-1.6-1-2.1-1.7c-0.5-0.7-0.9-1.6-1.2-2.5c-0.3-1-0.4-2-0.4-3c0-1,0.1-2,0.4-2.9c0.3-0.9,0.7-1.8,1.2-2.5
		c0.5-0.7,1.2-1.3,2.1-1.8c0.9-0.5,1.9-0.7,3.1-0.7c1.2,0,2.2,0.2,3.1,0.7c0.9,0.5,1.5,1.1,2.1,1.9c0.5,0.8,0.9,1.7,1.1,2.7
		c0.2,1,0.3,2,0.3,3.1H98.5z M108.2,21.8c0-0.7-0.1-1.4-0.4-2c-0.2-0.6-0.5-1.2-0.9-1.7s-0.9-0.9-1.5-1.2c-0.6-0.3-1.2-0.4-2-0.4
		c-0.8,0-1.4,0.1-2,0.4c-0.6,0.3-1.1,0.7-1.5,1.2s-0.7,1.1-1,1.7c-0.2,0.6-0.4,1.3-0.5,2H108.2z"/>
	<path id="XMLID_19_" class="st0" d="M112.5,15.3h1.7v2.8h0.1c0.4-1,1.1-1.9,2.1-2.4c1-0.6,2-0.9,3.3-0.9c1.1,0,2.1,0.2,3,0.6
		c0.8,0.4,1.5,1,2.1,1.7s1,1.6,1.2,2.5c0.3,1,0.4,2,0.4,3s-0.1,2.1-0.4,3c-0.3,1-0.7,1.8-1.2,2.5c-0.6,0.7-1.3,1.3-2.1,1.7
		c-0.8,0.4-1.8,0.6-3,0.6c-0.5,0-1.1-0.1-1.6-0.2c-0.5-0.1-1-0.3-1.5-0.6s-0.9-0.6-1.2-1c-0.4-0.4-0.6-0.9-0.8-1.4h-0.1v8.4h-1.8
		V15.3z M124.4,22.8c0-0.8-0.1-1.5-0.3-2.3c-0.2-0.8-0.5-1.4-0.9-2c-0.4-0.6-0.9-1.1-1.5-1.5c-0.6-0.4-1.4-0.6-2.2-0.6
		c-1,0-1.8,0.2-2.5,0.5s-1.2,0.8-1.6,1.4c-0.4,0.6-0.7,1.3-0.9,2s-0.2,1.6-0.2,2.4c0,0.8,0.1,1.5,0.3,2.3s0.5,1.4,0.9,2
		c0.4,0.6,1,1.1,1.6,1.5s1.5,0.6,2.5,0.6c0.9,0,1.6-0.2,2.2-0.6s1.1-0.9,1.5-1.5s0.7-1.3,0.9-2C124.3,24.4,124.4,23.6,124.4,22.8z"
		/>
	<path id="XMLID_22_" class="st0" d="M135.4,14.9c1.1,0,2.2,0.2,3,0.6c0.9,0.4,1.6,1,2.2,1.7c0.6,0.7,1.1,1.6,1.4,2.5
		c0.3,1,0.5,2,0.5,3.1s-0.2,2.1-0.5,3.1s-0.8,1.8-1.4,2.5c-0.6,0.7-1.3,1.3-2.2,1.7s-1.9,0.6-3,0.6c-1.1,0-2.2-0.2-3-0.6
		c-0.9-0.4-1.6-1-2.2-1.7c-0.6-0.7-1.1-1.6-1.4-2.5s-0.5-2-0.5-3.1s0.2-2.1,0.5-3.1c0.3-1,0.8-1.8,1.4-2.5c0.6-0.7,1.3-1.3,2.2-1.7
		C133.3,15.1,134.3,14.9,135.4,14.9z M135.4,16.4c-0.9,0-1.6,0.2-2.3,0.6c-0.7,0.4-1.2,0.9-1.6,1.5c-0.4,0.6-0.8,1.3-1,2
		s-0.3,1.5-0.3,2.3c0,0.8,0.1,1.6,0.3,2.3s0.6,1.4,1,2c0.4,0.6,1,1.1,1.6,1.5s1.4,0.6,2.3,0.6c0.9,0,1.6-0.2,2.3-0.6
		s1.2-0.9,1.6-1.5c0.4-0.6,0.8-1.3,1-2s0.3-1.5,0.3-2.3c0-0.8-0.1-1.6-0.3-2.3s-0.6-1.4-1-2c-0.4-0.6-1-1.1-1.6-1.5
		C137.1,16.6,136.3,16.4,135.4,16.4z"/>
	<path id="XMLID_25_" class="st0" d="M145.2,15.3h1.7v3.5h0.1c0.5-1.2,1.2-2.2,2.2-2.8c1-0.7,2.1-1,3.5-0.9V17
		c-0.8,0-1.6,0.1-2.3,0.3c-0.7,0.3-1.3,0.6-1.8,1.1c-0.5,0.5-0.9,1.1-1.1,1.7c-0.3,0.7-0.4,1.4-0.4,2.2v8h-1.8V15.3z"/>
	<path id="XMLID_27_" class="st0" d="M157.3,15.3h3v1.5h-3V27c0,0.6,0.1,1.1,0.2,1.4c0.2,0.3,0.6,0.5,1.2,0.6c0.5,0,1,0,1.6-0.1v1.5
		c-0.3,0-0.5,0-0.8,0c-0.3,0-0.5,0-0.8,0c-1.2,0-2.1-0.2-2.6-0.7s-0.7-1.3-0.7-2.6V16.9h-2.6v-1.5h2.6v-4.5h1.8V15.3z"/>
	<path id="XMLID_29_" class="st0" d="M171.9,19.7c0-0.6-0.1-1-0.3-1.5c-0.2-0.4-0.5-0.8-0.9-1c-0.4-0.3-0.8-0.5-1.2-0.6
		c-0.5-0.1-1-0.2-1.5-0.2c-0.4,0-0.8,0-1.2,0.1s-0.8,0.2-1.1,0.4c-0.3,0.2-0.6,0.5-0.8,0.8c-0.2,0.3-0.3,0.7-0.3,1.2
		c0,0.4,0.1,0.7,0.3,1s0.5,0.5,0.8,0.7s0.6,0.4,1,0.5c0.4,0.1,0.7,0.2,1,0.3l2.4,0.6c0.5,0.1,1,0.2,1.6,0.4c0.5,0.2,1,0.5,1.4,0.8
		c0.4,0.3,0.7,0.7,1,1.2c0.3,0.5,0.4,1.1,0.4,1.7c0,0.8-0.2,1.5-0.6,2.1c-0.4,0.6-0.8,1-1.4,1.4c-0.6,0.4-1.2,0.6-1.9,0.8
		c-0.7,0.2-1.4,0.2-2.1,0.2c-1.8,0-3.2-0.4-4.3-1.2c-1.1-0.8-1.7-2.2-1.9-4h1.8c0.1,1.2,0.5,2.2,1.3,2.8c0.8,0.6,1.8,0.9,3.1,0.9
		c0.4,0,0.9,0,1.4-0.1s0.9-0.3,1.3-0.5c0.4-0.2,0.7-0.5,1-0.9s0.4-0.8,0.4-1.3c0-0.4-0.1-0.8-0.3-1.1s-0.4-0.6-0.7-0.8
		c-0.3-0.2-0.7-0.4-1.1-0.5c-0.4-0.1-0.8-0.3-1.2-0.3l-2.3-0.5c-0.6-0.2-1.2-0.3-1.7-0.5c-0.5-0.2-0.9-0.5-1.3-0.8s-0.7-0.7-0.9-1.1
		s-0.3-1-0.3-1.6c0-0.8,0.2-1.4,0.5-1.9c0.3-0.5,0.8-1,1.3-1.3c0.5-0.3,1.1-0.6,1.8-0.7c0.7-0.2,1.3-0.2,2-0.2
		c0.8,0,1.5,0.1,2.1,0.3c0.6,0.2,1.2,0.5,1.7,0.9s0.9,0.9,1.2,1.5s0.5,1.3,0.5,2.1H171.9z"/>
</g>
</svg>
