<?xml version="1.0" encoding="utf-8"?>
<!-- Generator: Adobe Illustrator 18.1.1, SVG Export Plug-In . SVG Version: 6.00 Build 0)  -->
<svg version="1.1" id="Capa_1" xmlns="http://www.w3.org/2000/svg" xmlns:xlink="http://www.w3.org/1999/xlink" x="0px" y="0px"
	 viewBox="0 0 43 34.4" enable-background="new 0 0 43 34.4" xml:space="preserve">
<g>
	<path fill="#141313" d="M27.5,1.3H15.5c-1.8,0-3.3,1.5-3.3,3.3v25.2c0,1.8,1.5,3.3,3.3,3.3h11.9c1.8,0,3.3-1.5,3.3-3.3V4.6
		C30.8,2.8,29.3,1.3,27.5,1.3z M18.2,4h6.6c0.4,0,0.7,0.3,0.7,0.7s-0.3,0.7-0.7,0.7h-6.6c-0.4,0-0.7-0.3-0.7-0.7
		C17.5,4.3,17.8,4,18.2,4z M21.5,31.1c-0.7,0-1.3-0.6-1.3-1.3c0-0.7,0.6-1.3,1.3-1.3c0.7,0,1.3,0.6,1.3,1.3S22.2,31.1,21.5,31.1z
		 M29.4,26.5H13.6V7.9h15.9V26.5z"/>
</g>
</svg>
