<?xml version="1.0" encoding="utf-8"?>
<!-- Generator: Adobe Illustrator 19.0.0, SVG Export Plug-In . SVG Version: 6.00 Build 0)  -->
<svg version="1.1" id="Layer_1" xmlns="http://www.w3.org/2000/svg" xmlns:xlink="http://www.w3.org/1999/xlink" x="0px" y="0px"
	 viewBox="0 0 44 44" style="enable-background:new 0 0 44 44;" xml:space="preserve">
<style type="text/css">
	.st0{fill-rule:evenodd;clip-rule:evenodd;fill:#157DFB;}
</style>
<path class="st0" d="M35.8,36.6c-4.2,0-7.6-3.4-7.6-7.7s3.4-7.7,7.6-7.7c4.2,0,7.6,3.4,7.6,7.7S40,36.6,35.8,36.6z M40.5,28.5
	l-3.8,0c-0.1,0-0.3-0.1-0.3-0.3l0-3.8c0-0.1-0.1-0.3-0.2-0.4c-0.1-0.1-0.2-0.2-0.4-0.2c-0.3,0-0.5,0.3-0.5,0.5l0,3.8
	c0,0.1-0.1,0.3-0.3,0.3l-3.8,0c-0.1,0-0.3,0.1-0.4,0.2c-0.1,0.1-0.2,0.2-0.2,0.4c0,0.3,0.2,0.5,0.5,0.5l3.8,0c0.1,0,0.1,0,0.2,0.1
	c0.1,0.1,0.1,0.1,0.1,0.2l0,3.8c0,0.3,0.2,0.5,0.5,0.5c0.3,0,0.5-0.3,0.5-0.5l0-3.8c0-0.1,0.1-0.3,0.3-0.3l3.8,0
	c0.3,0,0.5-0.3,0.5-0.5C41.1,28.8,40.8,28.5,40.5,28.5z M35,14.6H5.8c-2.9,0-5.2-2.3-5.2-5.2s2.3-5.2,5.2-5.2H35
	c2.9,0,5.2,2.3,5.2,5.2S37.9,14.6,35,14.6z M11.6,8H6.9C6.1,8,5.5,8.6,5.5,9.3c0,0.7,0.6,1.4,1.4,1.4h4.7c0.7,0,1.4-0.6,1.4-1.4
	C13,8.6,12.3,8,11.6,8z M32.7,7.6c-1,0-1.7,0.8-1.7,1.7c0,1,0.8,1.7,1.7,1.7c1,0,1.7-0.8,1.7-1.7C34.4,8.4,33.6,7.6,32.7,7.6z
	 M5.8,16.3H35c1.9,0,3.6,1,4.5,2.6c-1.1-0.4-2.4-0.7-3.7-0.7c-5.1,0-9.4,3.7-10.4,8.5H5.8c-2.9,0-5.2-2.3-5.2-5.2
	C0.6,18.7,2.9,16.3,5.8,16.3z M6.9,22.9h4.7c0.7,0,1.4-0.6,1.4-1.4c0-0.7-0.6-1.4-1.4-1.4H6.9c-0.7,0-1.4,0.6-1.4,1.4
	C5.5,22.3,6.1,22.9,6.9,22.9z M5.8,28.6h19.5c0,0.1,0,0.2,0,0.3c0,4.8,3.2,8.8,7.5,10.2h-27c-2.9,0-5.2-2.3-5.2-5.2
	C0.6,30.9,2.9,28.6,5.8,28.6z M6.9,35.2h4.7c0.7,0,1.4-0.6,1.4-1.4c0-0.7-0.6-1.4-1.4-1.4H6.9c-0.7,0-1.4,0.6-1.4,1.4
	C5.5,34.6,6.1,35.2,6.9,35.2z"/>
</svg>
