<?xml version="1.0" encoding="utf-8"?>
<!-- Generator: Adobe Illustrator 19.0.0, SVG Export Plug-In . SVG Version: 6.00 Build 0)  -->
<svg version="1.1" id="Layer_1" xmlns="http://www.w3.org/2000/svg" xmlns:xlink="http://www.w3.org/1999/xlink" x="0px" y="0px"
	 viewBox="-389 259 180 44" style="enable-background:new -389 259 180 44;" xml:space="preserve">
<style type="text/css">
	.st0{fill:#0000CD;}
</style>
<g id="XMLID_2_">
	<path id="XMLID_3_" class="st0" d="M-382.1,268.6h9.5c0.9,0,1.7,0.1,2.4,0.3c0.8,0.2,1.4,0.5,2,1c0.6,0.4,1,1,1.4,1.7
		c0.4,0.7,0.5,1.5,0.5,2.4c0,1.3-0.3,2.5-1,3.4c-0.7,1-1.7,1.6-3,1.9v0.1c0.7,0.1,1.2,0.3,1.7,0.5c0.4,0.3,0.8,0.6,1.1,1
		s0.5,0.9,0.6,1.4s0.2,1.1,0.2,1.7c0,0.3,0,0.8,0.1,1.3c0,0.5,0.1,1,0.1,1.5c0.1,0.5,0.1,1,0.3,1.5c0.1,0.5,0.3,0.8,0.5,1.1h-2.2
		c-0.1-0.2-0.2-0.4-0.3-0.7c-0.1-0.3-0.1-0.6-0.1-0.9c0-0.3-0.1-0.6-0.1-0.9c0-0.3,0-0.5-0.1-0.8c0-0.7-0.1-1.5-0.2-2.2
		c-0.1-0.7-0.3-1.4-0.6-1.9c-0.3-0.6-0.7-1-1.2-1.4s-1.3-0.5-2.2-0.5h-7.4v9.2h-2C-382.1,289.3-382.1,268.6-382.1,268.6z
		 M-380.1,278.4h7.4c0.6,0,1.2-0.1,1.7-0.3c0.5-0.2,1-0.4,1.4-0.8c0.4-0.4,0.7-0.8,1-1.3c0.2-0.5,0.4-1.1,0.4-1.7
		c0-1.3-0.4-2.3-1.1-3c-0.7-0.7-1.9-1.1-3.4-1.1h-7.4V278.4z"/>
	<path id="XMLID_6_" class="st0" d="M-347.6,274.9c-0.2-0.8-0.5-1.5-0.9-2.1c-0.4-0.6-0.9-1.2-1.5-1.6c-0.6-0.4-1.2-0.7-1.9-1
		c-0.7-0.2-1.4-0.3-2.2-0.3c-1.4,0-2.6,0.3-3.5,0.8c-1,0.5-1.8,1.2-2.4,2.1c-0.6,0.9-1.1,1.8-1.4,2.9c-0.3,1.1-0.4,2.2-0.4,3.3
		s0.1,2.2,0.4,3.3c0.3,1.1,0.8,2.1,1.4,2.9c0.6,0.9,1.4,1.6,2.4,2.1s2.2,0.8,3.5,0.8c1,0,1.8-0.2,2.6-0.5c0.8-0.3,1.4-0.8,2-1.4
		c0.6-0.6,1-1.3,1.4-2.1c0.4-0.8,0.6-1.7,0.7-2.6h2c-0.1,1.3-0.4,2.4-0.9,3.5c-0.5,1-1.1,1.9-1.8,2.6c-0.7,0.7-1.6,1.3-2.6,1.7
		c-1,0.4-2.1,0.6-3.3,0.6c-1.6,0-3.1-0.3-4.3-0.9c-1.2-0.6-2.2-1.4-3.1-2.4c-0.8-1-1.4-2.1-1.8-3.4c-0.4-1.3-0.6-2.7-0.6-4.1
		s0.2-2.8,0.6-4.1c0.4-1.3,1-2.4,1.8-3.4c0.8-1,1.8-1.8,3.1-2.4c1.3-0.6,2.7-0.9,4.3-0.9c1,0,1.9,0.1,2.9,0.4c1,0.3,1.8,0.7,2.6,1.3
		s1.4,1.3,1.9,2.1c0.5,0.8,0.8,1.8,1,2.9h-2V274.9z"/>
	<path id="XMLID_8_" class="st0" d="M-341.4,282.5c0,1.1,0.1,2,0.5,2.7c0.3,0.7,0.8,1.3,1.4,1.7s1.3,0.7,2.2,0.9
		c0.8,0.2,1.7,0.3,2.7,0.3c0.5,0,1.1-0.1,1.8-0.2c0.6-0.2,1.2-0.4,1.8-0.7c0.6-0.3,1-0.8,1.4-1.3s0.6-1.2,0.6-1.9
		c0-0.6-0.1-1.1-0.4-1.5c-0.3-0.4-0.6-0.8-1-1.1c-0.4-0.3-0.9-0.5-1.4-0.7c-0.5-0.2-1-0.3-1.5-0.4l-4.7-1.3
		c-0.6-0.2-1.2-0.3-1.8-0.6c-0.6-0.2-1.1-0.5-1.5-0.9c-0.4-0.4-0.8-0.9-1-1.4c-0.3-0.6-0.4-1.2-0.4-2.1c0-0.5,0.1-1.1,0.3-1.8
		c0.2-0.7,0.6-1.3,1.1-1.9c0.5-0.6,1.3-1.1,2.2-1.5c0.9-0.4,2.1-0.6,3.6-0.6c1,0,2,0.1,2.9,0.4c0.9,0.3,1.7,0.7,2.4,1.2
		c0.7,0.5,1.3,1.2,1.7,2c0.4,0.8,0.6,1.7,0.6,2.8h-2c0-0.8-0.2-1.5-0.5-2.1c-0.3-0.6-0.7-1.1-1.2-1.5s-1.1-0.7-1.8-0.9
		c-0.7-0.2-1.4-0.3-2.1-0.3s-1.3,0.1-2,0.2c-0.6,0.1-1.2,0.4-1.7,0.7c-0.5,0.3-0.9,0.7-1.1,1.3c-0.2,0.6-0.4,1.2-0.4,1.9
		c0,0.5,0.1,0.9,0.2,1.3c0.2,0.4,0.4,0.7,0.7,0.9c0.3,0.3,0.6,0.5,1,0.6c0.4,0.1,0.8,0.3,1.2,0.4l5,1.2c0.7,0.2,1.4,0.4,2.1,0.7
		c0.6,0.3,1.2,0.6,1.7,1s0.9,0.9,1.2,1.5c0.3,0.6,0.4,1.3,0.4,2.2c0,0.2,0,0.5-0.1,0.9c0,0.4-0.2,0.8-0.3,1.2
		c-0.1,0.4-0.4,0.9-0.8,1.3c-0.3,0.4-0.8,0.8-1.4,1.2c-0.6,0.4-1.3,0.6-2.2,0.9c-0.9,0.2-1.9,0.3-3.1,0.3c-1.2,0-2.3-0.1-3.4-0.4
		c-1.1-0.3-1.9-0.7-2.7-1.3c-0.7-0.6-1.3-1.3-1.7-2.2s-0.6-2-0.5-3.3h2V282.5z"/>
	<path id="XMLID_10_" class="st0" d="M-316.3,268.6h1.8v2.9h-1.8V268.6z M-316.3,274.3h1.8v15h-1.8V274.3z"/>
	<path id="XMLID_13_" class="st0" d="M-310.6,268.6h9.5c0.9,0,1.7,0.1,2.4,0.3c0.8,0.2,1.4,0.5,2,1c0.6,0.4,1,1,1.4,1.7
		c0.3,0.7,0.5,1.5,0.5,2.4c0,1.3-0.3,2.5-1,3.4c-0.7,1-1.7,1.6-3,1.9v0.1c0.7,0.1,1.2,0.3,1.7,0.5c0.4,0.3,0.8,0.6,1.1,1
		s0.5,0.9,0.6,1.4s0.2,1.1,0.2,1.7c0,0.3,0,0.8,0.1,1.3s0.1,1,0.1,1.5c0.1,0.5,0.1,1,0.3,1.5c0.1,0.5,0.3,0.8,0.5,1.1h-2.2
		c-0.1-0.2-0.2-0.4-0.3-0.7c-0.1-0.3-0.1-0.6-0.1-0.9c0-0.3-0.1-0.6-0.1-0.9c0-0.3,0-0.5-0.1-0.8c0-0.7-0.1-1.5-0.2-2.2
		c-0.1-0.7-0.3-1.4-0.6-1.9c-0.3-0.6-0.7-1-1.2-1.4s-1.3-0.5-2.2-0.5h-7.5v9.2h-2L-310.6,268.6L-310.6,268.6z M-308.6,278.4h7.4
		c0.6,0,1.2-0.1,1.7-0.3c0.5-0.2,1-0.4,1.4-0.8c0.4-0.3,0.7-0.8,1-1.3c0.2-0.5,0.4-1.1,0.4-1.7c0-1.3-0.4-2.3-1.1-3
		c-0.7-0.7-1.9-1.1-3.4-1.1h-7.4V278.4z"/>
	<path id="XMLID_16_" class="st0" d="M-290.5,282.3c0,0.7,0.1,1.3,0.3,2c0.2,0.7,0.5,1.3,0.9,1.9c0.4,0.6,0.9,1,1.5,1.4
		c0.6,0.4,1.4,0.6,2.2,0.6c1.3,0,2.4-0.3,3.1-1c0.7-0.7,1.3-1.6,1.6-2.8h1.8c-0.4,1.7-1.1,3-2.1,3.9c-1,0.9-2.5,1.4-4.4,1.4
		c-1.2,0-2.2-0.2-3.1-0.6c-0.9-0.4-1.6-1-2.1-1.7c-0.5-0.7-0.9-1.6-1.2-2.5c-0.3-1-0.4-2-0.4-3s0.1-2,0.4-2.9
		c0.3-0.9,0.7-1.8,1.2-2.5s1.2-1.3,2.1-1.8c0.9-0.5,1.9-0.7,3.1-0.7c1.2,0,2.2,0.2,3.1,0.7s1.5,1.1,2.1,1.9c0.5,0.8,0.9,1.7,1.1,2.7
		c0.2,1,0.3,2,0.3,3.1h-11.5V282.3z M-280.8,280.8c0-0.7-0.1-1.4-0.4-2c-0.2-0.6-0.5-1.2-0.9-1.7s-0.9-0.9-1.5-1.2
		c-0.6-0.3-1.2-0.4-2-0.4s-1.4,0.1-2,0.4c-0.6,0.3-1.1,0.7-1.5,1.2s-0.7,1.1-1,1.7c-0.2,0.6-0.4,1.3-0.5,2H-280.8z"/>
	<path id="XMLID_19_" class="st0" d="M-276.5,274.3h1.7v2.8h0.1c0.4-1,1.1-1.9,2.1-2.4c1-0.6,2-0.9,3.3-0.9c1.1,0,2.1,0.2,3,0.6
		c0.8,0.4,1.5,1,2.1,1.7c0.6,0.7,1,1.6,1.2,2.5c0.3,1,0.4,2,0.4,3s-0.1,2.1-0.4,3c-0.3,1-0.7,1.8-1.2,2.5c-0.6,0.7-1.3,1.3-2.1,1.7
		c-0.8,0.4-1.8,0.6-3,0.6c-0.5,0-1.1-0.1-1.6-0.2c-0.5-0.1-1-0.3-1.5-0.6c-0.5-0.3-0.9-0.6-1.2-1c-0.4-0.4-0.6-0.9-0.8-1.4h-0.1v8.4
		h-1.8v-20.3H-276.5z M-264.6,281.8c0-0.8-0.1-1.5-0.3-2.3c-0.2-0.8-0.5-1.4-0.9-2c-0.4-0.6-0.9-1.1-1.5-1.5
		c-0.6-0.4-1.4-0.6-2.2-0.6c-1,0-1.8,0.2-2.5,0.5c-0.7,0.3-1.2,0.8-1.6,1.4c-0.4,0.6-0.7,1.3-0.9,2c-0.2,0.7-0.2,1.6-0.2,2.4
		c0,0.8,0.1,1.5,0.3,2.3s0.5,1.4,0.9,2c0.4,0.6,1,1.1,1.6,1.5s1.5,0.6,2.5,0.6c0.9,0,1.6-0.2,2.2-0.6c0.6-0.4,1.1-0.9,1.5-1.5
		c0.4-0.6,0.7-1.3,0.9-2C-264.7,283.4-264.6,282.6-264.6,281.8z"/>
	<path id="XMLID_22_" class="st0" d="M-253.6,273.9c1.1,0,2.2,0.2,3,0.6c0.9,0.4,1.6,1,2.2,1.7c0.6,0.7,1.1,1.6,1.4,2.5
		c0.3,1,0.5,2,0.5,3.1c0,1.1-0.2,2.1-0.5,3.1s-0.8,1.8-1.4,2.5c-0.6,0.7-1.3,1.3-2.2,1.7s-1.9,0.6-3,0.6s-2.2-0.2-3-0.6
		c-0.9-0.4-1.6-1-2.2-1.7c-0.6-0.7-1.1-1.6-1.4-2.5s-0.5-2-0.5-3.1c0-1.1,0.2-2.1,0.5-3.1c0.3-1,0.8-1.8,1.4-2.5
		c0.6-0.7,1.3-1.3,2.2-1.7C-255.7,274.1-254.7,273.9-253.6,273.9z M-253.6,275.4c-0.9,0-1.6,0.2-2.3,0.6s-1.2,0.9-1.6,1.5
		c-0.4,0.6-0.8,1.3-1,2c-0.2,0.7-0.3,1.5-0.3,2.3c0,0.8,0.1,1.6,0.3,2.3c0.2,0.7,0.6,1.4,1,2c0.4,0.6,1,1.1,1.6,1.5
		c0.6,0.4,1.4,0.6,2.3,0.6c0.9,0,1.6-0.2,2.3-0.6s1.2-0.9,1.6-1.5c0.4-0.6,0.8-1.3,1-2c0.2-0.7,0.3-1.5,0.3-2.3
		c0-0.8-0.1-1.6-0.3-2.3s-0.6-1.4-1-2s-1-1.1-1.6-1.5C-251.9,275.6-252.7,275.4-253.6,275.4z"/>
	<path id="XMLID_25_" class="st0" d="M-243.8,274.3h1.7v3.5h0.1c0.5-1.2,1.2-2.2,2.2-2.8c1-0.7,2.1-1,3.5-0.9v1.9
		c-0.8,0-1.6,0.1-2.3,0.3c-0.7,0.3-1.3,0.6-1.8,1.1s-0.9,1.1-1.1,1.7c-0.3,0.7-0.4,1.4-0.4,2.2v8h-1.8L-243.8,274.3L-243.8,274.3z"
		/>
	<path id="XMLID_27_" class="st0" d="M-231.7,274.3h3v1.5h-3V286c0,0.6,0.1,1.1,0.2,1.4c0.2,0.3,0.6,0.5,1.2,0.6c0.5,0,1,0,1.6-0.1
		v1.5c-0.3,0-0.5,0-0.8,0s-0.5,0-0.8,0c-1.2,0-2.1-0.2-2.6-0.7s-0.7-1.3-0.7-2.6v-10.2h-2.6v-1.5h2.6v-4.5h1.8v4.4H-231.7z"/>
	<path id="XMLID_29_" class="st0" d="M-217.1,278.7c0-0.6-0.1-1-0.3-1.5c-0.2-0.4-0.5-0.8-0.9-1c-0.4-0.3-0.8-0.5-1.2-0.6
		c-0.5-0.1-1-0.2-1.5-0.2c-0.4,0-0.8,0-1.2,0.1s-0.8,0.2-1.1,0.4c-0.3,0.2-0.6,0.5-0.8,0.8c-0.2,0.3-0.3,0.7-0.3,1.2
		c0,0.4,0.1,0.7,0.3,1c0.2,0.3,0.5,0.5,0.8,0.7c0.3,0.2,0.6,0.4,1,0.5s0.7,0.2,1,0.3l2.4,0.6c0.5,0.1,1,0.2,1.6,0.4
		c0.5,0.2,1,0.5,1.4,0.8c0.4,0.3,0.7,0.7,1,1.2s0.4,1.1,0.4,1.7c0,0.8-0.2,1.5-0.6,2.1c-0.4,0.6-0.8,1-1.4,1.4
		c-0.6,0.4-1.2,0.6-1.9,0.8c-0.7,0.2-1.4,0.2-2.1,0.2c-1.8,0-3.2-0.4-4.3-1.2c-1.1-0.8-1.7-2.2-1.9-4h1.8c0.1,1.2,0.5,2.2,1.3,2.8
		c0.8,0.6,1.8,0.9,3.1,0.9c0.4,0,0.9,0,1.4-0.1s0.9-0.3,1.3-0.5c0.4-0.2,0.7-0.5,1-0.9s0.4-0.8,0.4-1.3c0-0.4-0.1-0.8-0.3-1.1
		c-0.2-0.3-0.4-0.6-0.7-0.8c-0.3-0.2-0.7-0.4-1.1-0.5c-0.4-0.1-0.8-0.3-1.2-0.3l-2.3-0.5c-0.6-0.2-1.2-0.3-1.7-0.5
		c-0.5-0.2-0.9-0.5-1.3-0.8c-0.4-0.3-0.7-0.7-0.9-1.1c-0.2-0.4-0.3-1-0.3-1.6c0-0.8,0.2-1.4,0.5-1.9s0.8-1,1.3-1.3
		c0.5-0.3,1.1-0.6,1.8-0.7c0.7-0.2,1.3-0.2,2-0.2c0.8,0,1.5,0.1,2.1,0.3c0.6,0.2,1.2,0.5,1.7,0.9c0.5,0.4,0.9,0.9,1.2,1.5
		c0.3,0.6,0.5,1.3,0.5,2.1L-217.1,278.7L-217.1,278.7z"/>
</g>
</svg>
