<?xml version="1.0" encoding="utf-8"?>
<!-- Generator: Adobe Illustrator 19.2.1, SVG Export Plug-In . SVG Version: 6.00 Build 0)  -->
<svg version="1.1" xmlns="http://www.w3.org/2000/svg" xmlns:xlink="http://www.w3.org/1999/xlink" x="0px" y="0px"
	 viewBox="0 0 44 44" style="enable-background:new 0 0 44 44;" xml:space="preserve">
<style type="text/css">
	.st0{fill:#599E80;}
	.st1{fill:#A5A5A5;}
	.st2{fill:#90BA35;}
	.st3{fill:#BA3735;}
</style>
<g id="Layer_1">
	<g id="icon_x5F_ap">
		<path id="XMLID_18_" class="st0" d="M42,40.5H2.3c-0.6,0-1.1-0.5-1.1-1.1V4.6c0-0.6,0.5-1.1,1.1-1.1S3.4,4,3.4,4.6v33.6H42
			c0.6,0,1.1,0.5,1.1,1.1C43.1,40,42.6,40.5,42,40.5z"/>
	</g>
</g>
<g id="Layer_2_1_">
	<path class="st1" d="M40.3,15H3.9c-0.1,0-0.1,0-0.1-0.1l0,0c0-0.1,0-0.1,0.1-0.1h36.4C40.4,14.8,40.4,14.8,40.3,15L40.3,15
		C40.4,15,40.4,15,40.3,15z"/>
	<path class="st1" d="M40.3,22H3.9c-0.1,0-0.1,0-0.1-0.1v0c0-0.1,0-0.1,0.1-0.1h36.4c0.1,0,0.1,0,0.1,0.1L40.3,22
		C40.4,22,40.4,22,40.3,22z"/>
	<path class="st1" d="M40.3,29H3.9c-0.1,0-0.1,0-0.1-0.1v0c0-0.1,0-0.1,0.1-0.1h36.4c0.1,0,0.1,0,0.1,0.1L40.3,29
		C40.4,29,40.4,29,40.3,29z"/>
</g>
<g id="Layer_3_1_">
	<g>
		<circle class="st2" cx="7.3" cy="17" r="2.3"/>
		<g>
			<g>
				<line class="st2" x1="7.3" y1="17" x2="17.5" y2="22.2"/>
				
					<rect x="11.8" y="13.9" transform="matrix(0.4516 -0.8922 0.8922 0.4516 -10.6743 21.8053)" class="st2" width="1.2" height="11.4"/>
			</g>
		</g>
		<circle class="st2" cx="17.5" cy="22.2" r="2.3"/>
		<g>
			<g>
				<line class="st2" x1="28.4" y1="17.6" x2="17.5" y2="22.2"/>
				
					<rect x="17" y="19.2" transform="matrix(0.9219 -0.3875 0.3875 0.9219 -5.9083 10.4456)" class="st2" width="11.8" height="1.3"/>
			</g>
		</g>
		<circle class="st2" cx="28.4" cy="17.6" r="2.3"/>
		<g>
			<g>
				<line class="st2" x1="40" y1="14.1" x2="28.4" y2="17.6"/>
				
					<rect x="28.2" y="15.2" transform="matrix(0.9587 -0.2844 0.2844 0.9587 -3.0994 10.3806)" class="st2" width="12.1" height="1.2"/>
			</g>
		</g>
		<circle class="st2" cx="40" cy="14.1" r="2.3"/>
	</g>
	<g>
		<circle class="st3" cx="7.3" cy="23.4" r="2.3"/>
		<g>
			<g>
				<line class="st3" x1="7.3" y1="23.2" x2="17.9" y2="27.6"/>
				
					<rect x="12" y="19.7" transform="matrix(0.3856 -0.9227 0.9227 0.3856 -15.7033 27.2087)" class="st3" width="1.3" height="11.4"/>
			</g>
		</g>
		<circle class="st3" cx="17.9" cy="27.6" r="2.3"/>
		<g>
			<g>
				<line class="st3" x1="17.9" y1="27.6" x2="28.8" y2="27.7"/>
				
					<rect x="22.7" y="22.2" transform="matrix(9.191937e-003 -1 1 9.191937e-003 -4.5394 50.7185)" class="st3" width="1.3" height="10.9"/>
			</g>
		</g>
		<circle class="st3" cx="28.8" cy="27.7" r="2.3"/>
		<g>
			<g>
				<line class="st3" x1="40" y1="21.8" x2="28.8" y2="27.7"/>
				
					<rect x="28.1" y="24.1" transform="matrix(0.8849 -0.4659 0.4659 0.8849 -7.5701 18.8728)" class="st3" width="12.7" height="1.2"/>
			</g>
		</g>
		<circle class="st3" cx="40" cy="21.8" r="2.3"/>
	</g>
</g>
</svg>
