<?xml version="1.0" encoding="utf-8"?>
<!-- Generator: Adobe Illustrator 19.0.0, SVG Export Plug-In . SVG Version: 6.00 Build 0)  -->
<svg version="1.1" id="icon_x5F_ap" xmlns="http://www.w3.org/2000/svg" xmlns:xlink="http://www.w3.org/1999/xlink" x="0px"
	 y="0px" viewBox="0 0 44 44" style="enable-background:new 0 0 44 44;" xml:space="preserve">
<style type="text/css">
	.st0{fill-rule:evenodd;clip-rule:evenodd;fill:#FFFFFF;}
</style>
<path id="XMLID_9_" class="st0" d="M42.5,4.9l-2.4,2.7c-0.2,0.2-0.5,0.2-0.7,0.1l-1.8-1.4c-0.2-0.2-0.2-0.4-0.1-0.6L37.9,5
	c0.1-0.2,0.4-0.2,0.6-0.1l0.7,0.5c0.2,0.2,0.5,0.1,0.7-0.1l1.5-1.6c0.2-0.2,0.5-0.2,0.6,0l0.5,0.5C42.7,4.4,42.7,4.7,42.5,4.9z
	 M35.2,38.9h-6.2c-1.3,0-2.4-1.1-2.4-2.4V22.8c0,0,0-0.3-0.2-0.3c-0.9,0-2.6,0-3.4,0c-0.3,0-0.3-0.3-0.3-0.3v-1.3c0,0,0-0.3,0.3-0.3
	c0.8,0,2.5,0,3.4,0c0.2,0,0.2-0.3,0.2-0.3V6.8c0-1.3,1.1-2.4,2.4-2.4c0,0,4.6,0,6.1,0c0.4,0,0.4,0.4,0.4,0.4v1.2c0,0,0,0.4-0.4,0.4
	c-1.5,0-6.2,0-6.2,0c-0.3,0-0.5,0.2-0.5,0.5v13.5c0,0,0,0.3,0.3,0.3c1.6,0,4.7,0,6.4,0c0.4,0,0.4,0.3,0.4,0.3v1.3c0,0,0,0.3-0.4,0.3
	c-1.7,0-4.8,0-6.4,0c-0.3,0-0.3,0.4-0.3,0.4v13.5c0,0.3,0.2,0.5,0.5,0.5h6.2c0,0,0.4,0,0.4,0.4c0,0.3,0,0.8,0,1.1
	C35.6,38.9,35.2,38.9,35.2,38.9z M20.5,27c-0.2,0.1-0.5,0.2-0.7,0.2c-0.7,0-1.1-0.4-1.4-1.1c-0.5-1.1-1.2-3.6-1.6-5.1
	c0-0.2-0.1-0.5-0.1,0V26c0,0.3-0.1,0.6-0.3,0.9c-0.1,0.1-0.4,0.4-0.4,0.7v12c0,1.3-0.8,2.3-2,2.3c-1.2,0-1.8-1-1.8-2.3V27.7
	c0,0,0-0.3-0.5-0.3c-0.5,0-0.5,0.3-0.5,0.3v11.9c0,1.3-0.6,2.3-1.8,2.3c-1.2,0-2-1-2-2.3V27.3c0-0.2-0.4-0.6-0.4-0.8
	c-0.1-0.2-0.1-0.4-0.1-0.6v-4.8c0-0.6-0.1-0.4-0.2,0c-0.5,1.4-1.2,3.7-1.7,4.7c-0.3,0.7-0.8,1.2-1.5,1.2c-0.2,0-0.5-0.1-0.7-0.2
	c-0.9-0.4-1-1.5-0.6-2.4c0.6-1.3,1.1-2.7,1.5-4.1c1.2-3.6,2.6-8.6,5-8.6c0.8,0,6.1,0,6.2,0c2.3,0,3.8,5,5,8.6c0.5,1.4,1,2.8,1.5,4.1
	C21.7,25.5,21.4,26.6,20.5,27z M13.6,18.4l-0.8-3.9c0-0.1,0-0.2,0-0.3c0-0.2,0.1-0.8,0.1-0.8c0-0.2-0.1-0.4-0.3-0.4h-1.7
	c-0.2,0-0.3,0.2-0.3,0.4c0,0,0,0.6,0.1,0.8c0,0,0,0.2,0,0.3l-0.8,3.9c0,0.2,0,0.5,0.2,0.6l1.5,1.4c0.1,0.1,0.4,0.1,0.5,0l1.5-1.4
	C13.6,18.9,13.7,18.6,13.6,18.4z M11.6,10.8C9.1,10.8,7,8.6,7,6c0-2.6,2.1-4.7,4.6-4.7c2.6,0,4.6,2.1,4.6,4.7
	C16.3,8.6,14.2,10.8,11.6,10.8z M39.4,19.9c0.9,0,1.7,0.8,1.7,1.7c0,0.9-0.7,1.7-1.7,1.7c-0.9,0-1.7-0.8-1.7-1.7
	C37.7,20.7,38.5,19.9,39.4,19.9z M39.4,36.2c0.9,0,1.7,0.8,1.7,1.7c0,0.9-0.7,1.7-1.7,1.7c-0.9,0-1.7-0.8-1.7-1.7
	C37.7,37,38.5,36.2,39.4,36.2z"/>
</svg>
