<?xml version="1.0" encoding="utf-8"?>
<!-- Generator: Adobe Illustrator 19.0.0, SVG Export Plug-In . SVG Version: 6.00 Build 0)  -->
<svg version="1.1" id="Capa_1" xmlns="http://www.w3.org/2000/svg" xmlns:xlink="http://www.w3.org/1999/xlink" x="0px" y="0px"
	 viewBox="160.5 -0.5 44 44" style="enable-background:new 160.5 -0.5 44 44;" xml:space="preserve">
<style type="text/css">
	.st0{fill:#157DFB;stroke:#157DFB;stroke-width:0.25;stroke-miterlimit:10;}
	.st1{fill:#157DFB;}
</style>
<path class="st0" d="M185.5,40.1h-4.2c-0.6,0-0.8,0-3-5.3l-1.6-0.7c-4.5,2-5,2-5.2,2h-0.3l-0.3-0.3L168,33c-0.4-0.4-0.6-0.6,1.7-5.8
	l-0.7-1.6c-5.4-1.9-5.4-2.2-5.4-2.8v-4.1c0-0.6,0-0.8,5.4-2.9l0.7-1.6c-2.4-5.1-2.3-5.3-1.8-5.7l3.2-3.1l0.4,0
	c0.5,0,2.3,0.6,5.3,1.9l1.6-0.7c2-5.3,2.2-5.3,2.8-5.3h4.2c0.6,0,0.8,0,3,5.3l1.6,0.7c4.5-2,5-2,5.2-2h0.3l0.3,0.2l2.9,2.9
	c0.4,0.5,0.6,0.6-1.7,5.8l0.7,1.6c5.4,1.9,5.4,2.2,5.4,2.8v4.1c0,0.6,0,0.8-5.4,2.9l-0.7,1.6c2.4,5.1,2.3,5.3,1.8,5.7l-3.2,3.1
	l-0.4,0c-0.5,0-2.2-0.6-5.3-1.9l-1.6,0.7C186.4,40.1,186.2,40.1,185.5,40.1z M181.8,38.4h3.3c0.4-0.8,1.2-2.8,1.8-4.5l0.1-0.3l3-1.2
	l0.3,0.1c1.8,0.8,3.9,1.6,4.7,1.9l2.3-2.3c-0.3-0.8-1.2-2.8-2-4.5l-0.2-0.3l1.2-2.9l0.3-0.1c1.8-0.7,3.9-1.5,4.7-1.9V19
	c-0.8-0.4-2.9-1.2-4.6-1.8l-0.3-0.1l-1.2-2.9l0.1-0.3c0.8-1.7,1.6-3.8,1.9-4.6L194.9,7c-0.7,0.3-2.8,1.2-4.6,2L190,9.1l-3-1.2
	l-0.1-0.3c-0.7-1.8-1.6-3.8-2-4.6h-3.3c-0.4,0.8-1.2,2.8-1.8,4.5l-0.1,0.3l-3,1.2L176.4,9c-1.8-0.8-3.9-1.6-4.7-1.9l-2.3,2.3
	c0.3,0.8,1.2,2.8,2,4.5l0.2,0.3l-1.2,2.9l-0.3,0.1c-1.8,0.7-3.9,1.5-4.6,1.9v3.2c0.8,0.4,2.9,1.2,4.6,1.8l0.3,0.1l1.2,2.9l-0.1,0.3
	c-0.8,1.7-1.6,3.8-1.9,4.6l2.3,2.3c0.7-0.3,2.8-1.2,4.6-2l0.3-0.2l3,1.2l0.1,0.3C180.5,35.6,181.4,37.6,181.8,38.4z"/>
<path class="st1" d="M182.8,17.3c0,1.3-0.4,2.3-1.1,3.1c-0.7,0.7-1.6,1.1-2.8,1.1s-2-0.4-2.8-1.1c-0.7-0.7-1.1-1.8-1.1-3.1
	c0-1.2,0.3-2.3,1-3s1.6-1.1,2.8-1.1c1.1,0,2.1,0.4,2.8,1.1S182.8,16,182.8,17.3z M190.8,13.4l-13.3,16H176l13.2-16H190.8z
	 M180.9,17.3c0-1-0.2-1.8-0.5-2.4c-0.3-0.6-0.8-0.9-1.4-0.9c-0.6,0-1.1,0.3-1.4,0.9c-0.3,0.6-0.5,1.4-0.5,2.4c0,1,0.2,1.8,0.5,2.4
	c0.3,0.6,0.8,0.9,1.4,0.9s1.1-0.3,1.4-0.9C180.8,19.1,180.9,18.3,180.9,17.3z M191.6,25.7c0,1.3-0.4,2.3-1.1,3.1
	c-0.7,0.7-1.6,1.1-2.8,1.1s-2-0.4-2.8-1.1c-0.7-0.7-1.1-1.8-1.1-3.1c0-1.2,0.3-2.3,1-3c0.7-0.8,1.6-1.1,2.8-1.1
	c1.1,0,2.1,0.4,2.8,1.1C191.2,23.4,191.6,24.4,191.6,25.7z M189.7,25.7c0-1-0.2-1.8-0.5-2.4c-0.3-0.6-0.8-0.9-1.4-0.9
	c-0.6,0-1.1,0.3-1.4,0.9c-0.3,0.6-0.5,1.4-0.5,2.4c0,1,0.2,1.8,0.5,2.4c0.3,0.6,0.8,0.9,1.4,0.9s1.1-0.3,1.4-0.9
	C189.5,27.5,189.7,26.7,189.7,25.7z"/>
</svg>
