<?xml version="1.0" encoding="utf-8"?>
<!-- Generator: Adobe Illustrator 19.0.0, SVG Export Plug-In . SVG Version: 6.00 Build 0)  -->
<svg version="1.1" xmlns="http://www.w3.org/2000/svg" xmlns:xlink="http://www.w3.org/1999/xlink" x="0px" y="0px"
	 viewBox="228 -228 44 44" style="enable-background:new 228 -228 44 44;" xml:space="preserve">
<style type="text/css">
	.st0{display:none;}
	.st1{display:inline;}
	.st2{fill:#157DFB;}
</style>
<g id="Capa_1" class="st0">
	<g class="st1">
		<g>
			<path class="st2" d="M266.3-215.4c1.4,0,2.7-1.2,2.7-2.6s-1.3-2.7-2.7-2.7c-1.4,0-2.6,1.3-2.6,2.7S264.9-215.4,266.3-215.4z"/>
			<path class="st2" d="M266.3-203.7c1.4,0,2.7-1.2,2.7-2.6s-1.3-2.6-2.7-2.6c-1.4,0-2.6,1.2-2.6,2.6S264.9-203.7,266.3-203.7z"/>
			<path class="st2" d="M256.9-196.9h-23.4c-1.3,0-2.4,1-2.4,2.4c0,1.3,1.1,2.4,2.4,2.4h23.4c1.3,0,2.4-1.1,2.4-2.4
				C259.3-195.9,258.2-196.9,256.9-196.9z"/>
			<path class="st2" d="M266.3-191.9c1.4,0,2.7-1.3,2.7-2.7s-1.3-2.6-2.7-2.6c-1.4,0-2.6,1.2-2.6,2.6S264.9-191.9,266.3-191.9z"/>
			<path class="st2" d="M233.5-203.8h23.4c1.3,0,2.4-1.1,2.4-2.4c0-1.3-1.1-2.4-2.4-2.4h-23.4c-1.3,0-2.4,1.1-2.4,2.4
				C231-204.9,232.1-203.8,233.5-203.8z"/>
			<path class="st2" d="M233.5-215.5h23.4c1.3,0,2.4-1.1,2.4-2.4c0-1.3-1.1-2.4-2.4-2.4h-23.4c-1.3,0-2.4,1.1-2.4,2.4
				C231-216.6,232.1-215.5,233.5-215.5z"/>
		</g>
	</g>
</g>
<g id="Layer_2">
	<path class="st2" d="M258.4-193.1h-25.3c-0.9,0-1.6-0.7-1.6-1.6l0,0c0-0.9,0.7-1.6,1.6-1.6h25.3c0.9,0,1.6,0.7,1.6,1.6l0,0
		C260-193.8,259.3-193.1,258.4-193.1z"/>
	<path class="st2" d="M258.4-204.6h-25.3c-0.9,0-1.6-0.7-1.6-1.6l0,0c0-0.9,0.7-1.6,1.6-1.6h25.3c0.9,0,1.6,0.7,1.6,1.6l0,0
		C260-205.3,259.3-204.6,258.4-204.6z"/>
	<path class="st2" d="M258.4-216.1h-25.3c-0.9,0-1.6-0.7-1.6-1.6l0,0c0-0.9,0.7-1.6,1.6-1.6h25.3c0.9,0,1.6,0.7,1.6,1.6l0,0
		C260-216.8,259.3-216.1,258.4-216.1z"/>
	<path class="st2" d="M267.2-193.1h-0.3c-0.7,0-1.3-0.6-1.3-1.3v-0.5c0-0.7,0.6-1.3,1.3-1.3h0.3c0.7,0,1.3,0.6,1.3,1.3v0.5
		C268.5-193.7,267.9-193.1,267.2-193.1z"/>
	<path class="st2" d="M267.2-204.6h-0.3c-0.7,0-1.3-0.6-1.3-1.3v-0.5c0-0.7,0.6-1.3,1.3-1.3h0.3c0.7,0,1.3,0.6,1.3,1.3v0.5
		C268.5-205.2,267.9-204.6,267.2-204.6z"/>
	<path class="st2" d="M267.1-216.1h-0.2c-0.8,0-1.4-0.6-1.4-1.4v-0.4c0-0.8,0.6-1.4,1.4-1.4h0.2c0.8,0,1.4,0.6,1.4,1.4v0.4
		C268.5-216.7,267.9-216.1,267.1-216.1z"/>
</g>
</svg>
