<?xml version="1.0" encoding="utf-8"?>
<!-- Generator: Adobe Illustrator 19.0.0, SVG Export Plug-In . SVG Version: 6.00 Build 0)  -->
<svg version="1.1" id="Capa_1" xmlns="http://www.w3.org/2000/svg" xmlns:xlink="http://www.w3.org/1999/xlink" x="0px" y="0px"
	 viewBox="22 -93.7 44 44" style="enable-background:new 22 -93.7 44 44;" xml:space="preserve">
<style type="text/css">
	.st0{fill:#157DFB;}
</style>
<g>
	<path class="st0" d="M63-90.9H25c-1,0-1.8,0.8-1.8,1.8v4c0,1,0.8,1.8,1.8,1.8h0.3v4.5l0,0v24.4c0,1.2,1,2.2,2.2,2.2h12h8.9h12
		c1.2,0,2.2-1,2.2-2.2v-25.8v-0.2v-3H63c1,0,1.8-0.8,1.8-1.8v-4C64.7-90.1,64-90.9,63-90.9z M38.7-53.9H27.6c-0.3,0-0.5-0.2-0.5-0.5
		V-60h11.7L38.7-53.9L38.7-53.9z M47.6-53.9h-7.2v-15.7c0-0.1,0.1-0.1,0.1-0.1h6.8c0.1,0,0.1,0.1,0.1,0.1L47.6-53.9L47.6-53.9z
		 M60.9-54.5c0,0.3-0.2,0.5-0.5,0.5H49.4v-5.5H61L60.9-54.5L60.9-54.5z M60.9-61.2H49.4v-8.5c0-1-0.8-1.9-1.9-1.9h-6.9
		c-1,0-1.9,0.8-1.9,1.9v7.9H27.1v-13.9c0,0,0,0,0,0c0.1,0.1,0.2,0.1,0.4,0.2c0,0,0.1,0,0.1,0c0.1,0,0.3,0.1,0.5,0.2h0
		c0.1,0,0.3,0.1,0.4,0.1c0,0,0.1,0,0.1,0c0.2,0,0.3,0,0.5,0c0.1,0,0.3,0,0.4,0c1-0.1,1.9-0.6,2.5-1.4c0.6,0.8,1.5,1.3,2.5,1.4
		c0.1,0,0.3,0,0.4,0c0.1,0,0.3,0,0.4,0c1-0.1,1.9-0.6,2.5-1.4c0.6,0.8,1.5,1.3,2.5,1.4c0.1,0,0.3,0,0.4,0c0.1,0,0.3,0,0.4,0
		c1-0.1,1.9-0.6,2.5-1.4c0.6,0.8,1.5,1.3,2.5,1.4c0.1,0,0.3,0,0.4,0s0.3,0,0.4,0c1-0.1,1.9-0.6,2.5-1.4c0.6,0.8,1.5,1.3,2.5,1.4
		c0.1,0,0.3,0,0.4,0c0.1,0,0.3,0,0.4,0c1-0.1,1.9-0.6,2.5-1.4c0.6,0.8,1.5,1.3,2.5,1.4c0.1,0,0.3,0,0.4,0c0.2,0,0.4,0,0.5,0
		c0,0,0.1,0,0.1,0c0.2,0,0.3,0,0.5-0.1h0c0.1,0,0.3-0.1,0.4-0.2c0,0,0,0,0.1,0c0.1-0.1,0.3-0.1,0.4-0.2l0,0v14.5L60.9-61.2
		L60.9-61.2L60.9-61.2z M27.1-78.8v-4.5h4.2v4.5c0,0.8-0.5,1.6-1.3,1.9c-0.2,0.1-0.5,0.2-0.8,0.2c-0.3,0-0.6,0-0.8-0.2
		C27.6-77.2,27.1-77.9,27.1-78.8z M33-78.8v-4.5h4.2v4.5c0,0.8-0.5,1.6-1.3,1.9c-0.2,0.1-0.5,0.2-0.8,0.2c-0.3,0-0.6,0-0.8-0.2
		C33.5-77.2,33-77.9,33-78.8z M38.9-78.8v-4.5H43v4.5c0,0.8-0.5,1.6-1.3,1.9c-0.2,0.1-0.5,0.2-0.8,0.2c-0.3,0-0.6,0-0.8-0.2
		C39.4-77.2,38.9-77.9,38.9-78.8z M44.8-78.8v-4.5H49v4.5c0,0.8-0.5,1.6-1.3,1.9c-0.2,0.1-0.5,0.2-0.8,0.2c-0.3,0-0.6,0-0.8-0.2
		C45.3-77.2,44.8-77.9,44.8-78.8z M50.7-78.8v-4.5h4.2v4.5c0,0.8-0.5,1.6-1.3,1.9c-0.2,0.1-0.5,0.2-0.8,0.2c-0.3,0-0.6,0-0.8-0.2
		C51.3-77.2,50.7-77.9,50.7-78.8z M56.7-78.8v-4.5h4.2v2.4v2.1c0,0.8-0.5,1.6-1.3,1.9c-0.2,0.1-0.5,0.2-0.8,0.2s-0.6,0-0.8-0.2
		C57.2-77.2,56.7-77.9,56.7-78.8z M63-85.2C63-85.1,63-85.1,63-85.2H25l0-4l38,0V-85.2z"/>
</g>
</svg>
