<?xml version="1.0" encoding="utf-8"?>
<!-- Generator: Adobe Illustrator 19.2.1, SVG Export Plug-In . SVG Version: 6.00 Build 0)  -->
<svg version="1.1" xmlns="http://www.w3.org/2000/svg" xmlns:xlink="http://www.w3.org/1999/xlink" x="0px" y="0px"
	 viewBox="0 0 44 44" style="enable-background:new 0 0 44 44;" xml:space="preserve">
<style type="text/css">
	.st0{fill:#6A9E89;}
	.st1{fill:#1776CC;}
</style>
<g id="icon_x5F_ap">
	<path id="XMLID_18_" class="st0" d="M42,40.5H2.3c-0.6,0-1.1-0.5-1.1-1.1V4.6c0-0.6,0.5-1.1,1.1-1.1S3.4,4,3.4,4.6v33.6H42
		c0.6,0,1.1,0.5,1.1,1.1C43.1,40,42.6,40.5,42,40.5z"/>
</g>
<g id="Layer_2">
	<path class="st1" d="M37.9,22c0.4,0.8,1.1,1.3,2,1.3c1.3,0,2.3-1,2.3-2.3s-1-2.3-2.3-2.3c-1,0-1.7,0.5-2.1,1.3l-2.3-0.5l2.5-3.3
		c0.2,0.1,0.6,0.2,0.9,0.2c1.3,0,2.3-1,2.3-2.3s-1-2.3-2.3-2.3s-2.3,1-2.3,2.3c0,0.3,0,0.5,0.1,0.7H20c-0.3-0.9-1.1-1.5-2.1-1.5
		c-0.9,0-1.8,0.6-2.1,1.5H7.9c-0.2-0.1-0.4-0.1-0.6-0.1s-0.4,0-0.6,0.1H3.8l-0.1,0.1c0,0,0,0.1,0.1,0.1h2.4c-0.7,0.4-1.1,1.2-1.1,2
		c0,1.2,1,2.3,2.2,2.3c0.6,0,1.2-0.2,1.6-0.6l3.6,2.4l-0.7,0.8h-8c0,0-0.1,0-0.1,0.1c0,0,0,0.1,0.1,0.1h7.8l-3.1,3.5
		c-0.3-0.2-0.7-0.3-1.1-0.3c-1.3,0-2.3,1-2.3,2.3c0,0.5,0.1,0.9,0.4,1.3H3.8c0,0-0.1,0-0.1,0.1c0,0,0,0.1,0.1,0.1h1.9
		c0.4,0.5,1,0.8,1.7,0.8s1.3-0.3,1.7-0.8H27c0.4,0.5,1.1,0.9,1.8,0.9c0.7,0,1.4-0.3,1.8-0.9h9.9c0,0,0.1,0,0.1-0.1
		c0,0,0-0.1-0.1-0.1h-9.7c0.2-0.4,0.3-0.8,0.3-1.2c0-0.6-0.2-1.2-0.6-1.6l3.1-4.1H37.9z M39,12.5c0.8,0,1.4,0.7,1.4,1.5
		s-0.6,1.5-1.4,1.5c-0.2,0-0.3,0-0.5-0.1c-0.5-0.2-1-0.7-0.9-1.4C37.6,13.2,38.2,12.5,39,12.5z M8.7,27.6c0,0.8-0.6,1.5-1.4,1.5
		s-1.4-0.7-1.4-1.5s0.6-1.5,1.4-1.5S8.8,26.8,8.7,27.6z M37.6,21c0.1,0.3,0.1,0.6,0.1,0.8h-4l1.1-1.4L37.6,21z M20.3,15.6
		c0-0.2-0.1-0.4-0.1-0.6h16.7c0.1,0.2,0.2,0.3,0.3,0.5l-2.8,3.8l-3.8-0.8c0-1.3-1.1-2.3-2.3-2.3c-1.3,0-2.3,1-2.3,2.3
		c0,0.2,0.1,0.3,0.1,0.5l-3,1.5l-3.2-3.6C20.2,16.5,20.3,16.1,20.3,15.6z M22.1,21l-1.6,0.8h-2c-0.3-0.1-0.6-0.2-0.9-0.2
		s-0.6,0.1-0.9,0.2h-1.1l-1.5-1l2.8-3.2c0.3,0.2,0.7,0.3,1.1,0.3c0.4,0,0.8-0.1,1.1-0.3L22.1,21z M20,22l-0.7,0.4
		c-0.1-0.2-0.3-0.3-0.4-0.4H20z M16.2,22c0,0.1-0.1,0.1-0.1,0.1L15.9,22H16.2z M18,14.1c0.8,0,1.4,0.6,1.4,1.5
		c0,0.8-0.6,1.5-1.4,1.5s-1.4-0.7-1.4-1.5S17.2,14.1,18,14.1z M9.5,17.7c0.1-0.3,0.1-0.5,0.1-0.8c0-0.9-0.4-1.6-1.1-2h7.3
		c-0.1,0.2-0.1,0.4-0.1,0.6c0,0.5,0.2,1,0.5,1.4l-3,3.3L9.5,17.7z M13.6,21.8h-0.5l0.2-0.2L13.6,21.8z M26.8,28.9H9.2
		c0.3-0.4,0.4-0.8,0.4-1.3s-0.1-0.9-0.4-1.3L13,22h1l1.4,1c-0.1,0.3-0.2,0.6-0.2,0.9c0,1.3,1,2.3,2.3,2.3s2.3-1,2.3-2.3
		c0-0.2-0.1-0.4-0.1-0.6l2.6-1.3H23l3.9,4.4c-0.3,0.4-0.4,0.8-0.4,1.3S26.6,28.6,26.8,28.9z M28.8,29.2c-0.8,0-1.5-0.7-1.4-1.5
		c0-0.8,0.6-1.5,1.4-1.5s1.4,0.7,1.4,1.5S29.6,29.2,28.8,29.2z M29.6,25.6c-0.2-0.1-0.5-0.2-0.8-0.2c-0.4,0-0.8,0.1-1.1,0.3
		l-3.2-3.6h7.8L29.6,25.6z M24.2,21.9l-0.4-0.5l2.8-1.4c0.5,0.5,1.1,0.8,1.8,0.8c0.9,0,1.6-0.5,2-1.3l3.3,0.7l-1.3,1.7H24.2z"/>
</g>
</svg>
