<?xml version="1.0" encoding="utf-8"?>
<!-- Generator: Adobe Illustrator 19.0.0, SVG Export Plug-In . SVG Version: 6.00 Build 0)  -->
<svg version="1.1" id="Layer_1" xmlns="http://www.w3.org/2000/svg" xmlns:xlink="http://www.w3.org/1999/xlink" x="0px" y="0px"
	 viewBox="-457 259 44 44" style="enable-background:new -457 259 44 44;" xml:space="preserve">
<style type="text/css">
	.st0{fill:#0000CD;}
</style>
<path class="st0" d="M-421.2,295.6c-4.2,0-7.6-3.4-7.6-7.7c0-4.3,3.4-7.7,7.6-7.7c4.2,0,7.6,3.4,7.6,7.7
	C-413.6,292.2-417,295.6-421.2,295.6z M-416.5,287.5h-3.8c-0.1,0-0.3-0.1-0.3-0.3v-3.8c0-0.1-0.1-0.3-0.2-0.4
	c-0.1-0.1-0.2-0.2-0.4-0.2c-0.3,0-0.5,0.3-0.5,0.5v3.8c0,0.1-0.1,0.3-0.3,0.3h-3.8c-0.1,0-0.3,0.1-0.4,0.2c-0.1,0.1-0.2,0.2-0.2,0.4
	c0,0.3,0.2,0.5,0.5,0.5h3.8c0.1,0,0.1,0,0.2,0.1s0.1,0.1,0.1,0.2v3.8c0,0.3,0.2,0.5,0.5,0.5c0.3,0,0.5-0.3,0.5-0.5v-3.8
	c0-0.1,0.1-0.3,0.3-0.3h3.8c0.3,0,0.5-0.3,0.5-0.5C-415.9,287.8-416.2,287.5-416.5,287.5z M-422,273.6h-29.2c-2.9,0-5.2-2.3-5.2-5.2
	s2.3-5.2,5.2-5.2h29.2c2.9,0,5.2,2.3,5.2,5.2S-419.1,273.6-422,273.6z M-445.4,267h-4.7c-0.8,0-1.4,0.6-1.4,1.3
	c0,0.7,0.6,1.4,1.4,1.4h4.7c0.7,0,1.4-0.6,1.4-1.4C-444,267.6-444.7,267-445.4,267z M-424.3,266.6c-1,0-1.7,0.8-1.7,1.7
	c0,1,0.8,1.7,1.7,1.7c1,0,1.7-0.8,1.7-1.7C-422.6,267.4-423.4,266.6-424.3,266.6z M-451.2,275.3h29.2c1.9,0,3.6,1,4.5,2.6
	c-1.1-0.4-2.4-0.7-3.7-0.7c-5.1,0-9.4,3.7-10.4,8.5h-19.6c-2.9,0-5.2-2.3-5.2-5.2C-456.4,277.7-454.1,275.3-451.2,275.3z
	 M-450.1,281.9h4.7c0.7,0,1.4-0.6,1.4-1.4c0-0.7-0.6-1.4-1.4-1.4h-4.7c-0.7,0-1.4,0.6-1.4,1.4S-450.9,281.9-450.1,281.9z
	 M-451.2,287.6h19.5c0,0.1,0,0.2,0,0.3c0,4.8,3.2,8.8,7.5,10.2h-27c-2.9,0-5.2-2.3-5.2-5.2C-456.4,289.9-454.1,287.6-451.2,287.6z
	 M-450.1,294.2h4.7c0.7,0,1.4-0.6,1.4-1.4c0-0.7-0.6-1.4-1.4-1.4h-4.7c-0.7,0-1.4,0.6-1.4,1.4C-451.5,293.6-450.9,294.2-450.1,294.2
	z"/>
</svg>
