<?xml version="1.0" encoding="utf-8"?>
<!-- Generator: Adobe Illustrator 19.0.0, SVG Export Plug-In . SVG Version: 6.00 Build 0)  -->
<svg version="1.1" id="icon_x5F_ap" xmlns="http://www.w3.org/2000/svg" xmlns:xlink="http://www.w3.org/1999/xlink" x="0px"
	 y="0px" viewBox="0 0 44 44" style="enable-background:new 0 0 44 44;" xml:space="preserve">
<style type="text/css">
	.st0{fill-rule:evenodd;clip-rule:evenodd;fill:#FFFFFF;}
</style>
<path id="XMLID_18_" class="st0" d="M41.9,40.5H2.2c-0.6,0-1.1-0.5-1.1-1.1V4.6c0-0.6,0.5-1.1,1.1-1.1c0.6,0,1.1,0.5,1.1,1.1v33.6
	h38.6c0.6,0,1.1,0.5,1.1,1.1C43,40,42.5,40.5,41.9,40.5z M39.8,23.3c-0.9,0-1.6-0.5-2-1.3h-4.3l-3.1,4.1c0.4,0.4,0.6,1,0.6,1.6
	c0,0.4-0.1,0.8-0.3,1.2h9.7c0.1,0,0.1,0.1,0.1,0.1c0,0.1-0.1,0.1-0.1,0.1h-9.9c-0.4,0.6-1.1,0.9-1.8,0.9s-1.4-0.4-1.8-0.9H9
	c-0.4,0.5-1,0.8-1.7,0.8s-1.3-0.3-1.7-0.8H3.7c-0.1,0-0.1-0.1-0.1-0.1c0-0.1,0.1-0.1,0.1-0.1h1.7C5.1,28.5,5,28.1,5,27.6
	c0-1.3,1-2.3,2.3-2.3c0.4,0,0.8,0.1,1.1,0.3l3.1-3.5H3.7c-0.1,0-0.1-0.1-0.1-0.1c0-0.1,0.1-0.1,0.1-0.1h8l0.7-0.8l-3.6-2.4
	c-0.4,0.4-1,0.6-1.6,0.6C6,19.3,5,18.2,5,17c0-0.8,0.4-1.6,1.1-2H3.7c-0.1,0-0.1-0.1-0.1-0.1s0.1-0.1,0.1-0.1h2.9
	c0.2-0.1,0.4-0.1,0.6-0.1c0.2,0,0.4,0,0.6,0.1h7.9c0.3-0.9,1.2-1.5,2.1-1.5c1,0,1.8,0.6,2.1,1.5h16.7c-0.1-0.2-0.1-0.4-0.1-0.7
	c0-1.3,1-2.3,2.3-2.3c1.3,0,2.3,1,2.3,2.3c0,1.3-1,2.3-2.3,2.3c-0.3,0-0.7-0.1-0.9-0.2l-2.5,3.3l2.3,0.5c0.4-0.8,1.1-1.3,2.1-1.3
	c1.3,0,2.3,1,2.3,2.3C42.1,22.3,41.1,23.3,39.8,23.3z M7.2,26.1c-0.8,0-1.4,0.7-1.4,1.5c0,0.8,0.6,1.5,1.4,1.5
	c0.8,0,1.4-0.7,1.4-1.5C8.7,26.8,8,26.1,7.2,26.1z M38.4,15.4L38.4,15.4L38.4,15.4c0.2,0.1,0.3,0.1,0.5,0.1c0.8,0,1.4-0.7,1.4-1.5
	c0-0.8-0.6-1.5-1.4-1.5c-0.8,0-1.4,0.7-1.4,1.5C37.4,14.7,37.9,15.2,38.4,15.4z M33.6,20.2l-3.3-0.7c-0.4,0.8-1.1,1.3-2,1.3
	c-0.7,0-1.3-0.3-1.8-0.8l-2.8,1.4l0.4,0.5h8.2L33.6,20.2z M28.7,29.2c0.8,0,1.4-0.7,1.4-1.5c0-0.8-0.6-1.5-1.4-1.5
	c-0.8,0-1.4,0.7-1.4,1.5C27.2,28.5,27.9,29.2,28.7,29.2z M27.6,25.7c0.3-0.2,0.7-0.3,1.1-0.3c0.3,0,0.6,0.1,0.8,0.2l2.7-3.5h-7.8
	L27.6,25.7z M9.1,26.3c0.3,0.4,0.4,0.8,0.4,1.3c0,0.5-0.1,0.9-0.4,1.3h17.6c-0.2-0.3-0.3-0.7-0.3-1.2c0-0.5,0.1-0.9,0.4-1.3L22.9,22
	h-0.7l-2.6,1.3c0,0.2,0.1,0.4,0.1,0.6c0,1.3-1,2.3-2.3,2.3c-1.3,0-2.3-1-2.3-2.3c0-0.3,0.1-0.6,0.2-0.9l-1.4-1h-1L9.1,26.3z
	 M19.9,22h-1.1c0.1,0.1,0.3,0.2,0.4,0.4L19.9,22z M16.1,22h-0.3l0.2,0.1C16,22.1,16.1,22.1,16.1,22z M13.5,21.8l-0.3-0.2l-0.2,0.2
	H13.5z M15.6,15.5c0-0.2,0-0.4,0.1-0.6H8.4c0.7,0.4,1.1,1.1,1.1,2c0,0.3,0,0.5-0.1,0.8l3.7,2.5l3-3.3C15.8,16.5,15.6,16,15.6,15.5z
	 M17.9,14.1c-0.8,0-1.4,0.7-1.4,1.5c0,0.8,0.6,1.5,1.4,1.5c0.8,0,1.4-0.7,1.4-1.5C19.3,14.7,18.7,14.1,17.9,14.1z M19,17.6
	c-0.3,0.2-0.7,0.3-1.1,0.3c-0.4,0-0.8-0.1-1.1-0.3L14,20.8l1.5,1h1.1c0.3-0.1,0.6-0.2,0.9-0.2c0.3,0,0.6,0.1,0.9,0.2h2L22,21
	L19,17.6z M37.1,15.5c-0.1-0.2-0.2-0.3-0.3-0.5H20.1c0,0.2,0.1,0.4,0.1,0.6c0,0.5-0.1,0.9-0.4,1.3l3.2,3.6l3-1.5
	c0-0.2-0.1-0.3-0.1-0.5c0-1.3,1-2.3,2.3-2.3c1.2,0,2.3,1,2.3,2.3l3.8,0.8L37.1,15.5z M37.5,21l-2.8-0.6l-1.1,1.4h4
	C37.6,21.6,37.6,21.3,37.5,21z"/>
</svg>
