<?xml version="1.0" encoding="utf-8"?>
<!-- Generator: Adobe Illustrator 19.0.0, SVG Export Plug-In . SVG Version: 6.00 Build 0)  -->
<svg version="1.1" id="Layer_1" xmlns="http://www.w3.org/2000/svg" xmlns:xlink="http://www.w3.org/1999/xlink" x="0px" y="0px"
	 viewBox="0 0 44 44" style="enable-background:new 0 0 44 44;" xml:space="preserve">
<style type="text/css">
	.st0{fill:#157DFB;}
</style>
<g id="XMLID_2_">
	<path id="XMLID_3_" class="st0" d="M14.4,31.9c0.7-2,1.4-4,2.1-6c0.7-2,1.3-3.8,1.9-5.6c0.6-1.7,1.1-3.2,1.5-4.5
		c0.5-1.3,0.8-2.3,1.2-3c0.3-0.7,0.9-1.2,1.6-1.5c0.8-0.3,1.5-0.5,2.2-0.5s1.3,0.2,1.7,0.5c0.4,0.4,0.5,0.9,0.2,1.5
		c-0.3,0.7-0.7,1.9-1.3,3.6c-0.6,1.7-1.3,3.5-1.9,5.4c-0.7,1.9-1.3,3.8-1.9,5.6c-0.6,1.8-1,3.1-1.3,4c-0.3,0.8-0.5,1.6-0.7,2.4
		c-0.2,0.7-0.3,1.4-0.4,1.9c-0.1,0.5,0,0.9,0.2,1.3c0.2,0.3,0.6,0.5,1.2,0.5c1.2,0,2.5-0.8,4.2-2.3c1.6-1.5,3.1-3.4,4.3-5.7
		c0.6-1.1,1.2-1.5,1.7-1.3c0.5,0.2,0.5,0.9,0,2.1c-0.6,1.3-1.4,2.7-2.6,4.1c-1.1,1.4-2.4,2.8-3.8,4c-1.4,1.2-2.8,2.2-4.3,3
		c-1.5,0.8-2.9,1.2-4.1,1.2c-1.3,0-2.2-0.3-2.7-1c-0.5-0.7-0.7-1.5-0.7-2.6s0.2-2.2,0.5-3.4C13.6,34.2,14,33,14.4,31.9z M30.1,5.1
		c0,1-0.3,1.8-1,2.5s-1.5,1.1-2.6,1.1c-1,0-1.8-0.4-2.5-1.1s-1-1.5-1-2.5c0-1,0.3-1.8,1-2.5s1.5-1,2.5-1c1,0,1.9,0.3,2.6,1
		S30.1,4.1,30.1,5.1z"/>
</g>
</svg>
