<?xml version="1.0" encoding="utf-8"?>
<!-- Generator: Adobe Illustrator 19.0.0, SVG Export Plug-In . SVG Version: 6.00 Build 0)  -->
<svg version="1.1" id="Layer_1" xmlns="http://www.w3.org/2000/svg" xmlns:xlink="http://www.w3.org/1999/xlink" x="0px" y="0px"
	 viewBox="0 0 105.3 96" style="enable-background:new 0 0 105.3 96;" xml:space="preserve">
<style type="text/css">
	.st0{fill-rule:evenodd;clip-rule:evenodd;fill:#FFFFFF;}
</style>
<path class="st0" d="M99.9,31.8c0,0-16.9,17.1-18.7,18.8c-1.3,1.3-2.5-0.2-2.5-0.2l-17.5-17c0,0-2.1-1.9,0.2-2
	c2.2-0.1,7.8-0.3,7.8-0.3s0-1.4,0-3.5c0-6.1,0-17.1,0-21.5c0,0-0.3-1.2,1.5-1.4C72.6,4.6,88.2,3.1,89.6,3C91,2.9,91,3.9,91,3.9
	c0,4.6,0,16.5,0,22.6c0,2,0,3.3,0,3.3s5-0.2,8.2-0.3C102.4,29.4,99.9,31.8,99.9,31.8z M4.7,39.5l45.2-1l5,9.2l-5,7.2L4.7,54.2l4-6.8
	L4.7,39.5z M4.7,10.7L26,8.6l4.5,8.1L26,24.1L4.7,25.4l4-7.4L4.7,10.7z M96.5,94L4.8,85.1l4-6.5l-4-8.2l91.7,5.4l6.2,10.3L96.5,94z"
	/>
</svg>
